<svg width="1105" height="294" viewBox="0 0 1105 294" fill="none" xmlns="http://www.w3.org/2000/svg">
<path d="M406.462 287.745H350.621V0H545.736V49.9283H406.462V132.047H514.859V179.348H406.462V287.745Z" fill="white"/>
<path d="M636.395 287.745H583.838V72.9219H636.395V287.745Z" fill="white"/>
<path d="M858.445 287.745H679.097V252.27L786.18 119.565H682.381V72.9219H854.503V107.74L746.763 241.759H858.445V287.745Z" fill="white"/>
<path d="M1058.81 72.9214H1104.14V287.745H1058.16L1054.87 262.781C1046.99 271.978 1037.13 279.861 1025.97 285.117C1014.8 290.372 1002.32 293 989.177 293C969.469 293 951.731 287.745 935.307 277.89C918.883 268.036 905.744 254.24 895.89 237.159C886.036 220.079 881.437 201.027 881.437 180.662C881.437 160.296 886.036 141.244 895.89 124.164C905.744 107.083 918.883 93.2869 935.307 83.4326C951.731 73.5784 969.469 68.3228 989.177 68.3228C1002.97 68.3228 1015.46 70.9506 1026.62 76.2062C1037.79 81.4618 1047.65 89.3452 1055.53 98.5425L1058.81 72.9214ZM1024.65 235.189C1033.85 229.933 1041.73 222.049 1046.99 212.852C1052.24 203.655 1054.87 192.487 1054.87 180.662C1054.87 168.836 1052.24 158.325 1046.99 148.471C1041.73 138.617 1033.85 131.39 1024.65 126.135C1015.46 120.879 1004.94 118.251 993.776 118.251C982.608 118.251 972.096 120.879 962.899 126.135C953.702 131.39 946.475 139.274 941.22 148.471C935.964 157.668 933.336 168.836 933.336 180.662C933.336 192.487 935.964 202.998 941.22 212.852C946.475 222.706 953.702 229.933 962.899 235.189C972.096 240.444 982.608 243.072 993.776 243.072C1004.94 243.729 1015.46 240.444 1024.65 235.189Z" fill="white"/>
<path d="M612.087 65.6952C630.228 65.6952 644.934 50.9888 644.934 32.8476C644.934 14.7064 630.228 0 612.087 0C593.946 0 579.239 14.7064 579.239 32.8476C579.239 50.9888 593.946 65.6952 612.087 65.6952Z" fill="white"/>
<path d="M36.1643 75.4278C56.1373 75.4278 72.3287 59.2365 72.3287 39.2635C72.3287 19.2904 56.1373 3.09912 36.1643 3.09912C16.1913 3.09912 0 19.2904 0 39.2635C0 59.2365 16.1913 75.4278 36.1643 75.4278Z" fill="white"/>
<path d="M145.346 75.4278C165.319 75.4278 181.511 59.2365 181.511 39.2635C181.511 19.2904 165.319 3.09912 145.346 3.09912C125.373 3.09912 109.182 19.2904 109.182 39.2635C109.182 59.2365 125.373 75.4278 145.346 75.4278Z" fill="white"/>
<path d="M254.183 75.4278C274.156 75.4278 290.347 59.2365 290.347 39.2635C290.347 19.2904 274.156 3.09912 254.183 3.09912C234.21 3.09912 218.019 19.2904 218.019 39.2635C218.019 59.2365 234.21 75.4278 254.183 75.4278Z" fill="white"/>
<path d="M36.1643 184.609C56.1373 184.609 72.3287 168.418 72.3287 148.445C72.3287 128.472 56.1373 112.281 36.1643 112.281C16.1913 112.281 0 128.472 0 148.445C0 168.418 16.1913 184.609 36.1643 184.609Z" fill="white"/>
<path d="M145.346 184.609C165.319 184.609 181.511 168.418 181.511 148.445C181.511 128.472 165.319 112.281 145.346 112.281C125.373 112.281 109.182 128.472 109.182 148.445C109.182 168.418 125.373 184.609 145.346 184.609Z" fill="white"/>
<path d="M36.1643 293.447C56.1373 293.447 72.3287 277.256 72.3287 257.283C72.3287 237.31 56.1373 221.119 36.1643 221.119C16.1913 221.119 0 237.31 0 257.283C0 277.256 16.1913 293.447 36.1643 293.447Z" fill="white"/>
<path d="M145.347 221.119C125.371 221.119 109.183 237.306 109.183 257.283C109.183 277.259 125.371 293.447 145.347 293.447C165.324 293.447 181.512 277.259 181.512 257.283C181.856 237.306 165.668 221.119 145.347 221.119ZM145.347 281.048C132.259 281.048 121.582 270.371 121.582 257.283C121.582 244.195 132.259 233.518 145.347 233.518C158.435 233.518 169.113 244.195 169.113 257.283C169.113 270.371 158.435 281.048 145.347 281.048Z" fill="white"/>
<path d="M254.53 221.119C234.554 221.119 218.366 237.306 218.366 257.283C218.366 277.259 234.554 293.447 254.53 293.447C274.507 293.447 290.694 277.259 290.694 257.283C291.039 237.306 274.507 221.119 254.53 221.119ZM254.53 281.048C241.442 281.048 230.765 270.371 230.765 257.283C230.765 244.195 241.442 233.518 254.53 233.518C267.618 233.518 278.295 244.195 278.295 257.283C278.295 270.371 267.618 281.048 254.53 281.048Z" fill="white"/>
<path d="M254.53 112.281C234.554 112.281 218.366 128.469 218.366 148.445C218.366 168.422 234.554 184.609 254.53 184.609C274.507 184.609 290.694 168.422 290.694 148.445C290.694 128.469 274.507 112.281 254.53 112.281ZM254.53 172.21C241.442 172.21 230.765 161.533 230.765 148.445C230.765 135.357 241.442 124.68 254.53 124.68C267.618 124.68 278.295 135.357 278.295 148.445C278.295 161.533 267.618 172.21 254.53 172.21Z" fill="white"/>
</svg>
