<svg width="746" height="294" viewBox="0 0 746 294" fill="none" xmlns="http://www.w3.org/2000/svg">
<path d="M379.897 150.857H350.621V0H452.914V26.1761H379.897V69.2289H436.727V94.0273H379.897V150.857Z" fill="white"/>
<path d="M500.444 150.857H472.891V38.231H500.444V150.857Z" fill="white"/>
<path d="M616.859 150.857H522.832V132.258L578.973 62.6849H524.554V38.231H614.793V56.4853L558.308 126.747H616.859V150.857Z" fill="white"/>
<path d="M721.908 38.2308H745.673V150.857H721.563L719.841 137.769C715.708 142.591 710.542 146.724 704.686 149.479C698.831 152.235 692.287 153.612 685.399 153.612C675.066 153.612 665.767 150.857 657.156 145.691C648.546 140.524 641.657 133.291 636.491 124.336C631.325 115.381 628.914 105.393 628.914 94.716C628.914 84.0389 631.325 74.0507 636.491 65.0957C641.657 56.1407 648.546 48.9079 657.156 43.7415C665.767 38.5752 675.066 35.8198 685.399 35.8198C692.632 35.8198 699.176 37.1975 705.031 39.9529C710.886 42.7083 716.052 46.8413 720.185 51.6632L721.908 38.2308ZM703.998 123.303C708.819 120.548 712.953 116.415 715.708 111.593C718.463 106.771 719.841 100.916 719.841 94.716C719.841 88.5164 718.463 83.0057 715.708 77.8393C712.953 72.673 708.819 68.8844 703.998 66.129C699.176 63.3736 693.665 61.9959 687.81 61.9959C681.955 61.9959 676.444 63.3736 671.622 66.129C666.8 68.8844 663.011 73.0174 660.256 77.8393C657.501 82.6612 656.123 88.5164 656.123 94.716C656.123 100.916 657.501 106.426 660.256 111.593C663.011 116.759 666.8 120.548 671.622 123.303C676.444 126.058 681.955 127.436 687.81 127.436C693.665 127.781 699.176 126.058 703.998 123.303Z" fill="white"/>
<path d="M487.701 34.4422C497.212 34.4422 504.922 26.7321 504.922 17.2211C504.922 7.71015 497.212 0 487.701 0C478.19 0 470.479 7.71015 470.479 17.2211C470.479 26.7321 478.19 34.4422 487.701 34.4422Z" fill="white"/>
<path d="M350.967 183.921C353.033 183.577 356.478 183.232 359.922 183.232C364.744 183.232 367.843 183.921 370.254 185.988C372.321 187.365 373.354 189.776 373.354 192.532C373.354 196.32 370.943 199.42 366.81 200.798C370.254 201.831 374.732 204.586 374.732 210.442C374.732 213.541 373.354 216.297 371.632 218.019C368.877 220.43 364.744 221.463 358.544 221.463C355.1 221.463 352.689 221.119 350.967 221.119V183.921ZM355.789 199.764H360.266C365.433 199.764 368.532 197.009 368.532 193.565C368.532 189.087 365.088 187.365 360.266 187.365C357.855 187.365 356.822 187.365 355.789 187.71V199.764ZM355.789 217.674C356.822 217.674 358.2 218.019 359.922 218.019C365.088 218.019 369.566 216.297 369.566 210.786C369.566 205.62 365.088 203.553 359.922 203.553H355.789V217.674Z" fill="white"/>
<path d="M381.277 202.865C381.277 199.765 381.277 197.009 380.932 194.254H385.41V199.765H385.754C387.132 195.976 389.887 193.91 393.331 193.91C394.02 193.91 394.365 193.91 394.709 193.91V198.732C394.365 198.732 393.676 198.732 392.987 198.732C389.543 198.732 387.132 201.487 386.443 204.931C386.443 205.62 386.098 206.309 386.098 207.342V221.808H381.277V202.865Z" fill="white"/>
<path d="M423.984 207.686C423.984 217.674 417.096 222.152 410.552 222.152C403.319 222.152 397.464 216.641 397.464 208.031C397.464 198.731 403.319 193.565 410.896 193.565C418.474 193.565 423.984 199.42 423.984 207.686ZM402.286 208.031C402.286 213.886 405.73 218.363 410.552 218.363C415.374 218.363 418.818 213.886 418.818 207.686C418.818 203.209 416.407 197.354 410.552 197.354C404.697 197.354 402.286 202.864 402.286 208.031Z" fill="white"/>
<path d="M445.339 221.463L444.994 218.019C443.616 220.086 440.517 222.152 436.728 222.152C431.217 222.152 428.462 218.364 428.462 214.231C428.462 207.687 434.317 203.898 444.994 204.242V203.553C444.994 201.143 444.305 197.354 438.795 197.354C436.384 197.354 433.628 198.043 431.562 199.42L430.528 196.321C432.939 194.943 436.039 193.91 439.483 193.91C447.75 193.91 449.816 199.765 449.816 204.931V215.264C449.816 217.675 449.816 220.086 450.16 221.808H445.339V221.463ZM444.65 207.687C439.139 207.687 432.939 208.375 432.939 213.886C432.939 216.986 435.006 218.708 437.761 218.708C441.206 218.708 443.616 216.297 444.305 214.231C444.305 213.886 444.65 213.197 444.65 212.508V207.687Z" fill="white"/>
<path d="M480.813 181.51V214.575C480.813 216.986 480.813 219.741 481.158 221.463H476.68L476.336 216.641C474.958 219.741 471.514 222.152 467.037 222.152C460.493 222.152 455.326 216.641 455.326 208.375C455.326 199.42 460.837 193.565 467.725 193.565C471.858 193.565 474.614 195.632 475.992 197.698V181.51H480.813ZM475.992 205.275C475.992 204.587 475.992 203.898 475.647 203.209C474.958 200.109 472.203 197.354 468.414 197.354C463.248 197.354 460.148 201.831 460.148 208.031C460.148 213.542 462.903 218.019 468.07 218.019C471.514 218.019 474.269 215.952 475.303 212.164C475.303 211.475 475.647 210.786 475.647 210.097V205.275H475.992Z" fill="white"/>
<path d="M491.836 208.72C491.836 215.264 496.313 218.363 501.135 218.363C504.579 218.363 506.99 217.674 508.712 216.986L509.401 220.43C507.679 221.119 504.579 222.152 500.446 222.152C492.18 222.152 487.014 216.641 487.014 208.375C487.014 200.109 491.836 193.565 499.757 193.565C508.712 193.565 511.123 201.487 511.123 206.309C511.123 207.342 511.123 208.031 511.123 208.72H491.836ZM506.301 205.275C506.301 202.175 504.924 197.354 499.413 197.354C494.247 197.354 492.18 201.831 491.836 205.275H506.301Z" fill="white"/>
<path d="M517.323 202.865C517.323 199.765 517.323 197.009 516.979 194.254H521.456V199.765H521.801C523.179 195.976 525.934 193.91 529.378 193.91C530.067 193.91 530.411 193.91 530.756 193.91V198.732C530.411 198.732 529.723 198.732 529.034 198.732C525.59 198.732 523.179 201.487 522.49 204.931C522.49 205.62 522.145 206.309 522.145 207.342V221.808H517.323V202.865Z" fill="white"/>
<path d="M547.977 183.921C550.388 183.577 554.177 183.232 557.276 183.232C562.443 183.232 565.887 184.265 568.298 186.332C570.364 188.054 571.398 190.465 571.398 193.565C571.398 198.731 568.298 201.831 564.165 203.209C567.265 204.242 568.987 206.997 569.676 210.786C571.053 215.952 571.742 219.741 572.775 221.119H567.609C566.92 220.085 566.231 216.641 565.198 212.164C564.165 206.997 562.098 204.931 557.621 204.931H553.143V221.463H548.321V183.921H547.977ZM552.799 201.487H557.965C563.132 201.487 566.576 198.731 566.576 194.254C566.576 189.432 563.132 187.365 557.965 187.021C555.554 187.021 553.832 187.365 553.143 187.365V201.487H552.799Z" fill="white"/>
<path d="M581.04 208.72C581.04 215.264 585.518 218.363 590.34 218.363C593.784 218.363 596.195 217.674 597.917 216.986L598.606 220.43C596.884 221.119 593.784 222.152 589.651 222.152C581.385 222.152 576.218 216.641 576.218 208.375C576.218 200.109 581.04 193.565 588.962 193.565C597.917 193.565 600.328 201.487 600.328 206.309C600.328 207.342 600.328 208.031 600.328 208.72H581.04ZM595.506 205.275C595.506 202.175 594.128 197.354 588.617 197.354C583.451 197.354 581.385 201.831 581.04 205.275H595.506Z" fill="white"/>
<path d="M621.683 221.464L621.339 218.019C619.961 220.086 616.861 222.153 613.073 222.153C607.562 222.153 604.807 218.364 604.807 214.231C604.807 207.687 610.662 203.898 621.339 204.243V203.554C621.339 201.143 620.65 197.354 615.139 197.354C612.728 197.354 609.973 198.043 607.906 199.421L606.873 196.321C609.284 194.943 612.384 193.91 615.828 193.91C624.094 193.91 626.161 199.765 626.161 204.931V215.264C626.161 217.675 626.161 220.086 626.505 221.808H621.683V221.464ZM620.994 207.687C615.484 207.687 609.284 208.376 609.284 213.886C609.284 216.986 611.351 218.708 614.106 218.708C617.55 218.708 619.961 216.297 620.65 214.231C620.65 213.886 620.994 213.198 620.994 212.509V207.687Z" fill="white"/>
<path d="M653.37 220.43C651.992 221.119 649.237 222.153 645.448 222.153C637.182 222.153 632.016 216.642 632.016 208.376C632.016 200.11 637.871 193.91 646.826 193.91C649.926 193.91 652.337 194.599 653.714 195.288L652.681 199.076C651.648 198.387 649.581 197.699 646.826 197.699C640.626 197.699 637.182 202.176 637.182 208.031C637.182 214.231 641.315 218.364 646.826 218.364C649.581 218.364 651.648 217.675 653.025 216.986L653.37 220.43Z" fill="white"/>
<path d="M658.88 181.51H663.702V198.387C664.391 197.009 665.768 195.632 667.146 194.943C668.524 194.254 670.246 193.565 672.312 193.565C676.101 193.565 681.956 195.976 681.956 205.275V221.463H677.134V205.62C677.134 201.142 675.412 197.354 670.935 197.354C667.835 197.354 665.079 199.765 664.391 202.176C664.046 202.864 664.046 203.553 664.046 204.587V221.119H659.224V181.51H658.88Z" fill="white"/>
<path d="M350.967 251.772C353.033 251.428 356.478 251.083 359.922 251.083C364.744 251.083 367.843 251.772 370.254 253.839C372.321 255.216 373.354 257.627 373.354 260.383C373.354 264.171 370.943 267.271 366.81 268.649C370.254 269.682 374.732 272.437 374.732 278.293C374.732 281.392 373.354 284.148 371.632 285.87C368.877 288.281 364.744 289.314 358.544 289.314C355.1 289.314 352.689 288.97 350.967 288.97V251.772ZM355.789 267.271H360.266C365.433 267.271 368.532 264.516 368.532 261.072C368.532 256.594 365.088 254.872 360.266 254.872C357.855 254.872 356.822 254.872 355.789 255.216V267.271ZM355.789 285.525C356.822 285.525 358.2 285.87 359.922 285.87C365.088 285.87 369.566 284.148 369.566 278.637C369.566 273.471 365.088 271.404 359.922 271.404H355.789V285.525Z" fill="white"/>
<path d="M384.375 276.571C384.375 283.115 388.853 286.214 393.675 286.214C397.119 286.214 399.53 285.526 401.252 284.837L401.941 288.281C400.219 288.97 397.119 290.003 392.986 290.003C384.72 290.003 379.553 284.492 379.553 276.226C379.553 267.96 384.375 261.416 392.297 261.416C401.252 261.416 403.663 269.338 403.663 274.16C403.663 275.193 403.663 275.882 403.663 276.571H384.375ZM398.841 272.782C398.841 269.682 397.463 264.86 391.952 264.86C386.786 264.86 384.72 269.338 384.375 272.782H398.841Z" fill="white"/>
<path d="M415.718 254.184V261.761H422.951V265.55H415.718V280.36C415.718 283.804 416.752 285.526 419.507 285.526C420.885 285.526 421.918 285.526 422.262 285.182L422.607 288.97C421.574 289.315 420.196 289.659 418.129 289.659C415.718 289.659 413.996 288.97 412.619 287.593C411.241 286.215 410.552 283.804 410.552 280.36V265.55H406.419V261.761H410.552V255.217L415.718 254.184Z" fill="white"/>
<path d="M434.317 254.184V261.761H441.55V265.55H434.317V280.36C434.317 283.804 435.35 285.526 438.106 285.526C439.483 285.526 440.517 285.526 440.861 285.182L441.205 288.97C440.172 289.315 438.794 289.659 436.728 289.659C434.317 289.659 432.595 288.97 431.217 287.593C429.839 286.215 429.151 283.804 429.151 280.36V265.55H425.018V261.761H429.151V255.217L434.317 254.184Z" fill="white"/>
<path d="M449.472 276.571C449.472 283.115 453.95 286.214 458.772 286.214C462.216 286.214 464.627 285.526 466.349 284.837L467.038 288.281C465.316 288.97 462.216 290.003 458.083 290.003C449.817 290.003 444.65 284.492 444.65 276.226C444.65 267.96 449.472 261.416 457.394 261.416C466.349 261.416 468.76 269.338 468.76 274.16C468.76 275.193 468.76 275.882 468.76 276.571H449.472ZM464.282 272.782C464.282 269.682 462.905 264.86 457.394 264.86C452.228 264.86 450.161 269.338 449.817 272.782H464.282Z" fill="white"/>
<path d="M474.959 270.371C474.959 267.271 474.959 264.516 474.614 261.76H479.092V267.271H479.436C480.814 263.483 483.569 261.416 487.013 261.416C487.702 261.416 488.047 261.416 488.391 261.416V266.238C488.047 266.238 487.358 266.238 486.669 266.238C483.225 266.238 480.814 268.993 480.125 272.438C480.125 273.126 479.781 273.815 479.781 274.848V289.314H474.959V270.371Z" fill="white"/>
<path d="M505.612 251.772C508.712 251.428 512.156 251.083 515.944 251.083C522.833 251.083 527.999 252.805 531.443 255.905C534.888 259.005 536.954 263.482 536.954 269.682C536.954 275.882 534.888 281.048 531.443 284.492C527.999 287.936 522.144 290.003 514.567 290.003C511.123 290.003 508.023 290.003 505.612 289.659V251.772ZM510.434 285.181C511.811 285.525 513.534 285.525 515.256 285.525C525.588 285.525 531.443 279.67 531.443 269.338C531.443 260.383 526.277 254.527 515.944 254.527C513.534 254.527 511.467 254.872 510.089 254.872V285.181H510.434Z" fill="white"/>
<path d="M545.91 276.571C545.91 283.115 550.388 286.214 555.21 286.214C558.654 286.214 561.065 285.526 562.787 284.837L563.476 288.281C561.754 288.97 558.654 290.003 554.521 290.003C546.255 290.003 541.088 284.492 541.088 276.226C541.088 267.96 545.91 261.416 553.832 261.416C562.787 261.416 565.198 269.338 565.198 274.16C565.198 275.193 565.198 275.882 565.198 276.571H545.91ZM560.376 272.782C560.376 269.682 558.998 264.86 553.488 264.86C548.321 264.86 546.255 269.338 545.91 272.782H560.376Z" fill="white"/>
<path d="M591.029 288.281C589.651 288.97 586.896 290.003 583.107 290.003C574.841 290.003 569.675 284.493 569.675 276.226C569.675 267.96 575.53 261.761 584.485 261.761C587.585 261.761 589.996 262.45 591.373 263.138L590.34 266.927C589.307 266.238 587.24 265.549 584.485 265.549C578.285 265.549 574.841 270.027 574.841 275.882C574.841 282.082 578.974 286.215 584.485 286.215C587.24 286.215 589.307 285.526 590.685 284.837L591.029 288.281Z" fill="white"/>
<path d="M602.396 254.183C602.396 255.905 601.363 257.283 599.296 257.283C597.574 257.283 596.196 255.905 596.196 254.183C596.196 252.461 597.574 251.083 599.296 251.083C601.018 251.083 602.396 252.461 602.396 254.183ZM596.541 289.314V261.761H601.363V289.314H596.541Z" fill="white"/>
<path d="M609.284 284.148C610.661 285.181 613.417 286.214 615.828 286.214C619.272 286.214 620.994 284.492 620.994 282.081C620.994 279.67 619.616 278.292 615.828 276.915C611.006 275.193 608.595 272.437 608.595 269.337C608.595 264.86 612.039 261.416 617.894 261.416C620.65 261.416 623.061 262.105 624.438 263.138L623.061 266.582C622.027 265.893 619.961 264.86 617.55 264.86C614.45 264.86 613.072 266.582 613.072 268.649C613.072 271.06 614.794 271.748 618.239 273.126C623.061 274.848 625.472 277.259 625.472 281.392C625.472 286.214 621.683 289.658 615.139 289.658C612.039 289.658 609.284 288.97 607.562 287.936L609.284 284.148Z" fill="white"/>
<path d="M637.871 254.183C637.871 255.905 636.838 257.283 634.771 257.283C633.049 257.283 631.671 255.905 631.671 254.183C631.671 252.461 633.049 251.083 634.771 251.083C636.493 251.083 637.871 252.461 637.871 254.183ZM632.36 289.314V261.761H637.182V289.314H632.36Z" fill="white"/>
<path d="M670.246 275.193C670.246 285.182 663.358 289.659 656.814 289.659C649.581 289.659 643.726 284.148 643.726 275.538C643.726 266.238 649.581 261.072 657.158 261.072C664.735 261.416 670.246 266.927 670.246 275.193ZM648.548 275.538C648.548 281.393 651.992 285.87 656.814 285.87C661.636 285.87 665.08 281.393 665.08 275.193C665.08 270.716 662.669 264.861 656.814 264.861C650.958 264.861 648.548 270.371 648.548 275.538Z" fill="white"/>
<path d="M676.445 269.337C676.445 266.582 676.445 264.171 676.101 262.105H680.579L680.923 266.582C682.301 263.827 685.4 261.416 689.878 261.416C693.667 261.416 699.522 263.827 699.522 273.126V289.314H694.7V273.471C694.7 268.993 692.978 265.549 688.5 265.549C685.4 265.549 682.645 267.96 681.956 270.715C681.612 271.404 681.612 272.093 681.612 273.126V289.314H676.79V269.337H676.445Z" fill="white"/>
<path d="M36.1643 75.4278C56.1373 75.4278 72.3287 59.2365 72.3287 39.2635C72.3287 19.2904 56.1373 3.09912 36.1643 3.09912C16.1913 3.09912 0 19.2904 0 39.2635C0 59.2365 16.1913 75.4278 36.1643 75.4278Z" fill="white"/>
<path d="M145.346 75.4278C165.319 75.4278 181.511 59.2365 181.511 39.2635C181.511 19.2904 165.319 3.09912 145.346 3.09912C125.373 3.09912 109.182 19.2904 109.182 39.2635C109.182 59.2365 125.373 75.4278 145.346 75.4278Z" fill="white"/>
<path d="M254.183 75.4278C274.156 75.4278 290.347 59.2365 290.347 39.2635C290.347 19.2904 274.156 3.09912 254.183 3.09912C234.21 3.09912 218.019 19.2904 218.019 39.2635C218.019 59.2365 234.21 75.4278 254.183 75.4278Z" fill="white"/>
<path d="M36.1643 184.609C56.1373 184.609 72.3287 168.418 72.3287 148.445C72.3287 128.472 56.1373 112.281 36.1643 112.281C16.1913 112.281 0 128.472 0 148.445C0 168.418 16.1913 184.609 36.1643 184.609Z" fill="white"/>
<path d="M145.346 184.609C165.319 184.609 181.511 168.418 181.511 148.445C181.511 128.472 165.319 112.281 145.346 112.281C125.373 112.281 109.182 128.472 109.182 148.445C109.182 168.418 125.373 184.609 145.346 184.609Z" fill="white"/>
<path d="M36.1643 293.447C56.1373 293.447 72.3287 277.256 72.3287 257.283C72.3287 237.31 56.1373 221.119 36.1643 221.119C16.1913 221.119 0 237.31 0 257.283C0 277.256 16.1913 293.447 36.1643 293.447Z" fill="white"/>
<path d="M145.347 221.119C125.371 221.119 109.183 237.306 109.183 257.283C109.183 277.259 125.371 293.447 145.347 293.447C165.324 293.447 181.512 277.259 181.512 257.283C181.856 237.306 165.668 221.119 145.347 221.119ZM145.347 281.048C132.259 281.048 121.582 270.371 121.582 257.283C121.582 244.195 132.259 233.518 145.347 233.518C158.435 233.518 169.113 244.195 169.113 257.283C169.113 270.371 158.435 281.048 145.347 281.048Z" fill="white"/>
<path d="M254.53 221.119C234.554 221.119 218.366 237.306 218.366 257.283C218.366 277.259 234.554 293.447 254.53 293.447C274.507 293.447 290.694 277.259 290.694 257.283C291.039 237.306 274.507 221.119 254.53 221.119ZM254.53 281.048C241.442 281.048 230.765 270.371 230.765 257.283C230.765 244.195 241.442 233.518 254.53 233.518C267.618 233.518 278.295 244.195 278.295 257.283C278.295 270.371 267.618 281.048 254.53 281.048Z" fill="white"/>
<path d="M254.53 112.281C234.554 112.281 218.366 128.469 218.366 148.445C218.366 168.422 234.554 184.609 254.53 184.609C274.507 184.609 290.694 168.422 290.694 148.445C290.694 128.469 274.507 112.281 254.53 112.281ZM254.53 172.21C241.442 172.21 230.765 161.533 230.765 148.445C230.765 135.357 241.442 124.68 254.53 124.68C267.618 124.68 278.295 135.357 278.295 148.445C278.295 161.533 267.618 172.21 254.53 172.21Z" fill="white"/>
</svg>
