<svg width="291" height="291" viewBox="0 0 291 291" fill="none" xmlns="http://www.w3.org/2000/svg">
<path d="M36.1643 72.3287C56.1373 72.3287 72.3287 56.1373 72.3287 36.1643C72.3287 16.1913 56.1373 0 36.1643 0C16.1913 0 0 16.1913 0 36.1643C0 56.1373 16.1913 72.3287 36.1643 72.3287Z" fill="white"/>
<path d="M145.346 72.3287C165.319 72.3287 181.511 56.1373 181.511 36.1643C181.511 16.1913 165.319 0 145.346 0C125.373 0 109.182 16.1913 109.182 36.1643C109.182 56.1373 125.373 72.3287 145.346 72.3287Z" fill="white"/>
<path d="M254.183 72.3287C274.156 72.3287 290.347 56.1373 290.347 36.1643C290.347 16.1913 274.156 0 254.183 0C234.21 0 218.019 16.1913 218.019 36.1643C218.019 56.1373 234.21 72.3287 254.183 72.3287Z" fill="white"/>
<path d="M36.1643 181.51C56.1373 181.51 72.3287 165.319 72.3287 145.346C72.3287 125.373 56.1373 109.182 36.1643 109.182C16.1913 109.182 0 125.373 0 145.346C0 165.319 16.1913 181.51 36.1643 181.51Z" fill="white"/>
<path d="M145.346 181.51C165.319 181.51 181.511 165.319 181.511 145.346C181.511 125.373 165.319 109.182 145.346 109.182C125.373 109.182 109.182 125.373 109.182 145.346C109.182 165.319 125.373 181.51 145.346 181.51Z" fill="white"/>
<path d="M36.1643 290.348C56.1373 290.348 72.3287 274.157 72.3287 254.184C72.3287 234.211 56.1373 218.02 36.1643 218.02C16.1913 218.02 0 234.211 0 254.184C0 274.157 16.1913 290.348 36.1643 290.348Z" fill="white"/>
<path d="M145.347 218.02C125.371 218.02 109.183 234.207 109.183 254.184C109.183 274.16 125.371 290.348 145.347 290.348C165.324 290.348 181.512 274.16 181.512 254.184C181.856 234.207 165.668 218.02 145.347 218.02ZM145.347 277.949C132.259 277.949 121.582 267.272 121.582 254.184C121.582 241.096 132.259 230.419 145.347 230.419C158.435 230.419 169.113 241.096 169.113 254.184C169.113 267.272 158.435 277.949 145.347 277.949Z" fill="white"/>
<path d="M254.53 218.02C234.554 218.02 218.366 234.207 218.366 254.184C218.366 274.16 234.554 290.348 254.53 290.348C274.507 290.348 290.694 274.16 290.694 254.184C291.039 234.207 274.507 218.02 254.53 218.02ZM254.53 277.949C241.442 277.949 230.765 267.272 230.765 254.184C230.765 241.096 241.442 230.419 254.53 230.419C267.618 230.419 278.295 241.096 278.295 254.184C278.295 267.272 267.618 277.949 254.53 277.949Z" fill="white"/>
<path d="M254.53 109.182C234.554 109.182 218.366 125.369 218.366 145.346C218.366 165.322 234.554 181.51 254.53 181.51C274.507 181.51 290.694 165.322 290.694 145.346C290.694 125.369 274.507 109.182 254.53 109.182ZM254.53 169.111C241.442 169.111 230.765 158.434 230.765 145.346C230.765 132.258 241.442 121.581 254.53 121.581C267.618 121.581 278.295 132.258 278.295 145.346C278.295 158.434 267.618 169.111 254.53 169.111Z" fill="white"/>
</svg>
